# xmcd CD database file
#
# Track frame offsets:
#	150
#	11409
#	28949
#	40908
#	56194
#	73709
#	85348
#	99685
#	116597
#	132386
#	152460
#	165980
#	177350
#	191035
#	202655
#
# Disc length: 2896 seconds
#
# Revision: 1
# Processed by: cddbd v1.5.2PL0 Copyright (c) Steve Scherf et al.
# Submitted via: CDex 1.70beta2
#
DISCID=c70b4e0f
DTITLE=All Times Bigband - A Beautiful Friendship
DYEAR=2007
DGENRE=Jazz
TTITLE0=Let's Fall In Love
TTITLE1=My Romance
TTITLE2=Don't Get Around Much Anymore
TTITLE3=Our Love Is Here To Stay
TTITLE4='s Wonderful
TTITLE5=Ain't That A Kick In The Head
TTITLE6=Sway
TTITLE7=It Don't Mean A Thing
TTITLE8=Love For Sale
TTITLE9=But Beautiful
TTITLE10=That Old Black Magic
TTITLE11=It Happened In Monterey
TTITLE12=Mack The Knife
TTITLE13=Mean To Me
TTITLE14=A Beautiful Friendship
EXTD=YEAR: 2007
EXTT0=
EXTT1=
EXTT2=
EXTT3=
EXTT4=
EXTT5=
EXTT6=
EXTT7=
EXTT8=
EXTT9=
EXTT10=
EXTT11=
EXTT12=
EXTT13=
EXTT14=
PLAYORDER=
